HIERARCHY
ROOT Hips
{
	OFFSET 0.000000 100.481300 0.000000
	CHANNELS 6 Xposition Yposition Zposition Xrotation Yrotation Zrotation 
	JOINT Spine
	{
		OFFSET -0.279200 12.230698 -2.892100
		CHANNELS 3 Xrotation Yrotation Zrotation
		JOINT Spine1
		{
			OFFSET -0.232667 10.192268 -1.242267
			CHANNELS 3 Xrotation Yrotation Zrotation
			JOINT Spine1_split
			{
				OFFSET -0.232667 10.192268 -1.242267
				CHANNELS 3 Xrotation Yrotation Zrotation
				JOINT Spine2
				{
					OFFSET -0.232667 10.192268 -1.242267
					CHANNELS 3 Xrotation Yrotation Zrotation
					JOINT Neck
					{
						OFFSET -0.418800 17.814194 8.416900
						CHANNELS 3 Xrotation Yrotation Zrotation
						JOINT Head
						{
							OFFSET 0.000000 7.031097 3.806800
							CHANNELS 3 Xrotation Yrotation Zrotation
							JOINT HeadTop_End
							{
								OFFSET 0.000000 24.646606 12.978600
								CHANNELS 3 Xrotation Yrotation Zrotation
								End Site
								{
									OFFSET 0.000000 0.000000 0.000000
								}
							}
						}
					}
					JOINT LeftShoulder
					{
						OFFSET 8.476499 7.247704 -3.868750
						CHANNELS 3 Xrotation Yrotation Zrotation
						JOINT LeftShoulder_split
						{
							OFFSET 8.476499 7.247704 -3.868750
							CHANNELS 3 Xrotation Yrotation Zrotation
							JOINT LeftArm
							{
								OFFSET 9.308998 -2.777710 0.208600
								CHANNELS 3 Xrotation Yrotation Zrotation
								JOINT LeftForeArm
								{
									OFFSET 29.972298 0.000000 0.000000
									CHANNELS 3 Xrotation Yrotation Zrotation
									JOINT LeftHand
									{
										OFFSET 26.026505 0.000000 0.000000
										CHANNELS 3 Xrotation Yrotation Zrotation
										JOINT LeftHandThumb1
										{
											OFFSET 12.240501 -7.147949 9.207150
											CHANNELS 3 Xrotation Yrotation Zrotation
											JOINT LeftHandThumb2
											{
												OFFSET 4.138618 -2.389435 2.389433
												CHANNELS 3 Xrotation Yrotation Zrotation
												JOINT LeftHandThumb3
												{
													OFFSET 2.726913 -1.574387 1.574386
													CHANNELS 3 Xrotation Yrotation Zrotation
													JOINT LeftHandThumb4
													{
														OFFSET 3.941010 -2.275345 2.275342
														CHANNELS 3 Xrotation Yrotation Zrotation
														End Site
														{
															OFFSET 0.000000 0.000000 0.000000
														}
													}
												}
											}
										}
										JOINT LeftHandIndex1
										{
											OFFSET 24.424698 -1.985611 5.953459
											CHANNELS 3 Xrotation Yrotation Zrotation
											JOINT LeftHandIndex2
											{
												OFFSET 6.426697 0.000000 0.000000
												CHANNELS 3 Xrotation Yrotation Zrotation
												JOINT LeftHandIndex3
												{
													OFFSET 5.337898 0.000000 0.000000
													CHANNELS 3 Xrotation Yrotation Zrotation
													JOINT LeftHandIndex4
													{
														OFFSET 4.409401 0.000000 0.000000
														CHANNELS 3 Xrotation Yrotation Zrotation
														End Site
														{
															OFFSET 0.000000 0.000000 0.000000
														}
													}
												}
											}
										}
										JOINT LeftHandMiddle1
										{
											OFFSET 23.810104 0.000000 0.000000
											CHANNELS 3 Xrotation Yrotation Zrotation
											JOINT LeftHandMiddle2
											{
												OFFSET 7.176498 0.000000 0.000000
												CHANNELS 3 Xrotation Yrotation Zrotation
												JOINT LeftHandMiddle3
												{
													OFFSET 6.774902 0.000000 0.000000
													CHANNELS 3 Xrotation Yrotation Zrotation
													JOINT LeftHandMiddle4
													{
														OFFSET 5.403328 0.000000 0.000000
														CHANNELS 3 Xrotation Yrotation Zrotation
														End Site
														{
															OFFSET 0.000000 0.000000 0.000000
														}
													}
												}
											}
										}
										JOINT LeftHandRing1
										{
											OFFSET 22.908401 -0.839279 -6.020567
											CHANNELS 3 Xrotation Yrotation Zrotation
											JOINT LeftHandRing2
											{
												OFFSET 6.337502 0.000000 0.000000
												CHANNELS 3 Xrotation Yrotation Zrotation
												JOINT LeftHandRing3
												{
													OFFSET 5.779297 0.000000 0.000000
													CHANNELS 3 Xrotation Yrotation Zrotation
													JOINT LeftHandRing4
													{
														OFFSET 4.965698 0.000000 0.000000
														CHANNELS 3 Xrotation Yrotation Zrotation
														End Site
														{
															OFFSET 0.000000 0.000000 0.000000
														}
													}
												}
											}
										}
										JOINT LeftHandPinky1
										{
											OFFSET 20.037003 -1.530319 -10.950146
											CHANNELS 3 Xrotation Yrotation Zrotation
											JOINT LeftHandPinky2
											{
												OFFSET 5.254700 0.000000 0.000000
												CHANNELS 3 Xrotation Yrotation Zrotation
												JOINT LeftHandPinky3
												{
													OFFSET 4.810204 0.000000 0.000000
													CHANNELS 3 Xrotation Yrotation Zrotation
													JOINT LeftHandPinky4
													{
														OFFSET 3.647202 0.000000 0.000000
														CHANNELS 3 Xrotation Yrotation Zrotation
														End Site
														{
															OFFSET 0.000000 0.000000 0.000000
														}
													}
												}
											}
										}
									}
								}
							}
						}
					}
					JOINT RightShoulder
					{
						OFFSET -7.570500 7.247704 -3.868750
						CHANNELS 3 Xrotation Yrotation Zrotation
						JOINT RightShoulder_split
						{
							OFFSET -7.570500 7.247704 -3.868750
							CHANNELS 3 Xrotation Yrotation Zrotation
							JOINT RightArm
							{
								OFFSET -9.308998 -2.777710 0.208500
								CHANNELS 3 Xrotation Yrotation Zrotation
								JOINT RightForeArm
								{
									OFFSET -29.972300 0.000000 0.000000
									CHANNELS 3 Xrotation Yrotation Zrotation
									JOINT RightHand
									{
										OFFSET -26.026505 0.000000 0.000000
										CHANNELS 3 Xrotation Yrotation Zrotation
										JOINT RightHandThumb1
										{
											OFFSET -12.240601 -7.148026 9.207092
											CHANNELS 3 Xrotation Yrotation Zrotation
											JOINT RightHandThumb2
											{
												OFFSET -4.138618 -2.389435 2.389433
												CHANNELS 3 Xrotation Yrotation Zrotation
												JOINT RightHandThumb3
												{
													OFFSET -2.726974 -1.574417 1.574421
													CHANNELS 3 Xrotation Yrotation Zrotation
													JOINT RightHandThumb4
													{
														OFFSET -3.941010 -2.275345 2.275343
														CHANNELS 3 Xrotation Yrotation Zrotation
														End Site
														{
															OFFSET 0.000000 0.000000 0.000000
														}
													}
												}
											}
										}
										JOINT RightHandIndex1
										{
											OFFSET -24.424698 -1.985657 5.953444
											CHANNELS 3 Xrotation Yrotation Zrotation
											JOINT RightHandIndex2
											{
												OFFSET -6.426697 0.000000 0.000000
												CHANNELS 3 Xrotation Yrotation Zrotation
												JOINT RightHandIndex3
												{
													OFFSET -5.337898 0.000000 0.000000
													CHANNELS 3 Xrotation Yrotation Zrotation
													JOINT RightHandIndex4
													{
														OFFSET -4.409401 0.000000 0.000000
														CHANNELS 3 Xrotation Yrotation Zrotation
														End Site
														{
															OFFSET 0.000000 0.000000 0.000000
														}
													}
												}
											}
										}
										JOINT RightHandMiddle1
										{
											OFFSET -23.810097 0.000000 0.000000
											CHANNELS 3 Xrotation Yrotation Zrotation
											JOINT RightHandMiddle2
											{
												OFFSET -7.176498 0.000000 0.000000
												CHANNELS 3 Xrotation Yrotation Zrotation
												JOINT RightHandMiddle3
												{
													OFFSET -6.774902 0.000000 0.000000
													CHANNELS 3 Xrotation Yrotation Zrotation
													JOINT RightHandMiddle4
													{
														OFFSET -5.403328 0.000000 0.000000
														CHANNELS 3 Xrotation Yrotation Zrotation
														End Site
														{
															OFFSET 0.000000 0.000000 0.000000
														}
													}
												}
											}
										}
										JOINT RightHandRing1
										{
											OFFSET -22.908302 -0.839325 -6.020576
											CHANNELS 3 Xrotation Yrotation Zrotation
											JOINT RightHandRing2
											{
												OFFSET -6.337502 0.000000 0.000000
												CHANNELS 3 Xrotation Yrotation Zrotation
												JOINT RightHandRing3
												{
													OFFSET -5.779297 0.000000 0.000000
													CHANNELS 3 Xrotation Yrotation Zrotation
													JOINT RightHandRing4
													{
														OFFSET -4.965698 0.000000 0.000000
														CHANNELS 3 Xrotation Yrotation Zrotation
														End Site
														{
															OFFSET 0.000000 0.000000 0.000000
														}
													}
												}
											}
										}
										JOINT RightHandPinky1
										{
											OFFSET -20.037003 -1.530334 -10.950259
											CHANNELS 3 Xrotation Yrotation Zrotation
											JOINT RightHandPinky2
											{
												OFFSET -5.254700 0.000000 0.000000
												CHANNELS 3 Xrotation Yrotation Zrotation
												JOINT RightHandPinky3
												{
													OFFSET -4.810204 0.000000 0.000000
													CHANNELS 3 Xrotation Yrotation Zrotation
													JOINT RightHandPinky4
													{
														OFFSET -3.647202 0.000000 0.000000
														CHANNELS 3 Xrotation Yrotation Zrotation
														End Site
														{
															OFFSET 0.000000 0.000000 0.000000
														}
													}
												}
											}
										}
									}
								}
							}
						}
					}
				}
			}
		}
	}
	JOINT LeftUpLeg
	{
		OFFSET 15.427100 -6.655098 0.678600
		CHANNELS 3 Xrotation Yrotation Zrotation
		JOINT LeftLeg
		{
			OFFSET 4.081073 -39.591068 13.024000
			CHANNELS 3 Xrotation Yrotation Zrotation
			JOINT LeftFoot
			{
				OFFSET -4.081074 -37.707932 -15.979700
				CHANNELS 3 Xrotation Yrotation Zrotation
				JOINT LeftToeBase
				{
					OFFSET 5.346399 -15.068900 20.645000
					CHANNELS 3 Xrotation Yrotation Zrotation
					JOINT LeftToe_End
					{
						OFFSET 2.754700 0.931300 11.300900
						CHANNELS 3 Xrotation Yrotation Zrotation
						End Site
						{
							OFFSET 0.000000 0.000000 0.000000
						}
					}
				}
			}
		}
	}
	JOINT RightUpLeg
	{
		OFFSET -15.569500 -6.655098 0.678600
		CHANNELS 3 Xrotation Yrotation Zrotation
		JOINT RightLeg
		{
			OFFSET -4.081825 -39.591045 13.023800
			CHANNELS 3 Xrotation Yrotation Zrotation
			JOINT RightFoot
			{
				OFFSET 4.081824 -37.707954 -15.979600
				CHANNELS 3 Xrotation Yrotation Zrotation
				JOINT RightToeBase
				{
					OFFSET -5.346400 -15.068900 20.645000
					CHANNELS 3 Xrotation Yrotation Zrotation
					JOINT RightToe_End
					{
						OFFSET -2.754700 0.931300 11.300900
						CHANNELS 3 Xrotation Yrotation Zrotation
						End Site
						{
							OFFSET 0.000000 0.000000 0.000000
						}
					}
				}
			}
		}
	}
}
MOTION
Frames: 4
Frame Time: 0.016667
-0.003052 74.367661 -0.357813 11.754820 -49.677376 11.771046 10.996888 2.942113 -2.515478 6.100709 5.566555 -4.284692 0.000000 0.000000 0.000000 -5.786913 6.328138 -3.046181 2.319052 9.363313 -0.265467 -4.147094 23.161904 -3.523281 0.000000 -0.000000 -0.000000 -1.875347 -16.181668 -2.870475 0.000000 0.000000 0.000000 -10.644678 2.164661 -45.510623 -22.862375 -25.786235 -15.871626 2.491028 -2.511867 6.860436 18.457954 -9.513780 13.216602 -1.150203 11.255308 -8.400829 5.706546 8.483133 -0.820721 0.000003 0.000001 -0.000003 -1.232784 -5.771966 -0.192343 0.133946 -0.197647 -4.602133 0.055755 -0.448199 -7.568209 -0.000003 -0.000003 0.000002 1.884755 4.663381 -4.597373 0.476682 -1.009854 -12.986404 0.628519 -1.346609 -16.554008 -0.000002 0.000000 0.000001 3.024632 7.938907 -14.103457 -0.708020 -0.566202 -18.895739 -0.726361 -0.705025 -22.058407 -0.000000 -0.000001 -0.000001 2.010399 6.305951 -22.386524 -0.815374 -0.210763 -16.746468 -2.232635 0.018997 -34.673858 -0.000002 0.000002 0.000002 -5.074635 24.343805 1.482710 0.000000 0.000000 0.000000 6.642366 -34.733803 57.610392 -21.031986 44.833799 19.961650 -0.087212 35.608481 7.474232 55.149570 18.649587 -29.698318 -0.442545 -14.180552 7.313157 21.666967 -29.244507 9.142361 0.000000 0.000001 -0.000001 5.673409 7.585013 36.844165 1.050416 3.824517 68.900264 0.499585 3.026025 62.196447 -0.000000 0.000002 -0.000001 -0.125692 1.886102 45.000756 -1.169031 3.204652 68.417684 -0.936423 1.813616 41.107545 0.000003 0.000001 -0.000001 -5.312003 1.216651 58.508801 -0.745225 1.667567 48.011285 -0.816492 1.840592 53.666558 -0.000002 -0.000001 -0.000002 -7.756806 -9.376453 47.264004 -0.526055 1.541598 45.600511 -0.508187 0.803477 24.986621 0.000005 -0.000000 -0.000001 -67.586600 25.164241 42.947311 43.279777 -19.356830 3.336708 8.271915 0.637547 -12.352766 -0.971438 -6.109412 0.595614 -0.000000 -0.000001 -0.000000 -29.726797 0.631824 -30.303036 49.962793 5.852543 -4.864545 -26.770020 -5.250115 27.155348 0.528304 2.970075 1.471357 0.000000 -0.000002 0.000000 
0.640729 74.488693 0.653028 11.541672 -50.286537 11.397490 10.952035 2.966488 -2.305264 6.124975 5.554782 -4.185736 0.000000 0.000000 0.000000 -5.749229 6.252876 -2.945705 2.454502 9.259360 0.283435 -4.037793 23.425824 -4.188950 0.000001 0.000000 0.000000 -1.890584 -15.766081 -3.028450 0.000000 0.000000 0.000000 -10.843723 2.172837 -45.626989 -22.239275 -25.278177 -15.651641 2.395514 -2.217331 6.686378 18.445856 -9.517018 13.239951 -1.175409 11.215332 -8.387406 5.706521 8.483080 -0.820716 0.000001 0.000002 -0.000001 -1.232789 -5.771115 -0.170632 0.134046 -0.196785 -4.580403 0.055831 -0.447305 -7.546470 -0.000001 -0.000001 -0.000002 1.839194 4.652772 -4.567430 0.476927 -1.008868 -12.960884 0.628813 -1.345698 -16.528505 -0.000001 0.000002 0.000002 3.025060 7.940578 -14.060280 -0.707454 -0.564583 -18.852232 -0.725729 -0.703402 -22.014962 0.000001 0.000001 0.000000 2.032031 6.337664 -22.326022 -0.814711 -0.208485 -16.683558 -2.231510 0.020627 -34.610850 -0.000004 -0.000002 0.000001 -5.114987 24.192851 1.600715 0.000000 0.000000 0.000000 7.019138 -34.769399 57.282857 -21.780874 43.486978 20.030030 -0.160487 36.453157 8.087223 55.149563 18.649587 -29.698322 -0.442548 -14.180561 7.313155 21.666963 -29.244500 9.142359 -0.000001 0.000002 -0.000002 5.673409 7.585014 36.844168 1.050416 3.824519 68.900257 0.499583 3.026023 62.196440 -0.000001 0.000002 -0.000004 -0.125690 1.886101 45.000753 -1.169030 3.204654 68.417684 -0.936419 1.813617 41.107552 -0.000003 -0.000000 0.000001 -5.312005 1.216651 58.508801 -0.745224 1.667570 48.011285 -0.816493 1.840592 53.666558 0.000001 -0.000000 -0.000002 -7.756806 -9.376453 47.264001 -0.526054 1.541598 45.600515 -0.508191 0.803472 24.986625 0.000003 0.000001 -0.000001 -67.360316 25.340391 43.179483 44.440848 -18.992647 3.109588 6.972037 0.733914 -11.464848 -0.973322 -6.109435 0.596448 -0.000000 0.000001 -0.000000 -29.108415 0.820963 -30.481884 48.690537 6.050632 -5.153882 -25.598926 -5.824775 28.052186 0.717111 3.574774 1.379346 0.000000 0.000004 -0.000000 
1.406573 74.717155 1.671711 11.355864 -51.057710 11.068697 10.845552 2.992718 -2.084756 6.211050 5.531380 -4.085919 0.000000 0.000000 0.000000 -5.634571 6.080632 -2.847558 2.506703 8.998894 0.963299 -3.946309 23.543606 -4.816440 0.000000 0.000000 0.000000 -1.898945 -15.838087 -3.026467 0.000000 0.000000 0.000000 -10.916586 3.036752 -45.852689 -21.654539 -24.915524 -15.679266 2.318329 -2.084248 6.697798 18.431646 -9.520763 13.267336 -1.205852 11.169446 -8.368961 5.706530 8.483091 -0.820717 -0.000002 0.000001 -0.000002 -1.232798 -5.770116 -0.145184 0.134133 -0.195815 -4.554969 0.055973 -0.446337 -7.521035 -0.000001 0.000000 -0.000002 1.785766 4.640267 -4.532349 0.477194 -1.007126 -12.931003 0.629115 -1.344554 -16.498602 -0.000002 0.000002 -0.000000 3.025553 7.942527 -14.009651 -0.706805 -0.562723 -18.801294 -0.724977 -0.701506 -21.964012 0.000002 0.000003 0.000003 2.057237 6.374984 -22.255039 -0.813895 -0.205795 -16.609770 -2.230216 0.022528 -34.537043 0.000002 0.000001 -0.000002 -5.162248 24.117345 1.733597 0.000000 0.000000 0.000000 7.217172 -34.742908 57.034818 -22.411831 42.270077 20.016528 -0.144732 37.048893 8.544433 55.149570 18.649587 -29.698328 -0.442549 -14.180563 7.313154 21.666965 -29.244507 9.142361 -0.000000 -0.000000 -0.000001 5.673408 7.585014 36.844158 1.050416 3.824518 68.900257 0.499580 3.026021 62.196447 0.000001 0.000000 -0.000003 -0.125696 1.886105 45.000753 -1.169031 3.204652 68.417691 -0.936420 1.813616 41.107545 -0.000001 0.000000 -0.000000 -5.312008 1.216651 58.508807 -0.745225 1.667567 48.011288 -0.816496 1.840591 53.666558 0.000001 0.000000 0.000001 -7.756809 -9.376454 47.264001 -0.526054 1.541599 45.600518 -0.508190 0.803473 24.986627 0.000004 0.000000 -0.000001 -66.972710 25.666920 43.385198 45.369091 -18.605157 2.822182 5.705842 0.886114 -10.558591 -0.980016 -6.105366 0.600167 -0.000000 0.000002 0.000000 -28.574786 1.025111 -30.671405 47.196570 6.270915 -5.409640 -24.280634 -6.212251 28.939081 0.888214 4.174542 1.281121 -0.000000 -0.000000 -0.000000 
2.285105 75.002502 2.811914 11.253438 -52.047606 10.783257 10.680486 3.007330 -1.825869 6.304674 5.446447 -3.965666 0.000000 0.000000 0.000000 -5.493485 5.769521 -2.734773 2.557819 8.625431 1.729379 -3.941154 23.486690 -5.405070 0.000002 0.000000 0.000000 -1.912187 -15.416601 -3.171550 0.000000 0.000000 0.000000 -11.148242 3.692024 -46.007505 -20.985189 -24.405075 -15.663044 2.270416 -1.926653 6.652088 18.404090 -9.528087 13.320406 -1.265165 11.080856 -8.332357 5.706527 8.483138 -0.820718 0.000002 -0.000001 0.000002 -1.232757 -5.768235 -0.095803 0.134290 -0.193901 -4.505603 0.056232 -0.444372 -7.471656 0.000003 0.000000 0.000000 1.682323 4.615619 -4.464371 0.477659 -1.002991 -12.873085 0.629781 -1.342416 -16.440550 0.000002 0.000000 0.000001 3.030791 7.946180 -13.912207 -0.705578 -0.559055 -18.702514 -0.723448 -0.697849 -21.865155 0.000001 0.000003 0.000002 2.105538 6.447763 -22.117582 -0.813374 -0.200588 -16.466584 -2.227675 0.026232 -34.393978 -0.000003 0.000000 -0.000001 -5.215427 24.184385 1.892620 0.000000 0.000000 0.000000 6.918598 -34.742194 56.575317 -22.804881 40.833518 19.736817 -0.060777 37.536589 9.176391 55.149574 18.649589 -29.698322 -0.442547 -14.180555 7.313158 21.666965 -29.244507 9.142360 -0.000000 0.000000 0.000001 5.673408 7.585014 36.844165 1.050416 3.824516 68.900257 0.499585 3.026024 62.196440 -0.000001 0.000001 -0.000002 -0.125693 1.886104 45.000756 -1.169031 3.204652 68.417684 -0.936420 1.813617 41.107548 0.000001 -0.000000 -0.000000 -5.312006 1.216651 58.508801 -0.745225 1.667564 48.011285 -0.816494 1.840593 53.666558 0.000001 0.000002 -0.000000 -7.756808 -9.376455 47.264004 -0.526053 1.541596 45.600511 -0.508193 0.803478 24.986627 0.000001 -0.000000 -0.000003 -66.472344 26.074741 43.588614 46.321213 -18.124114 2.508257 4.259242 1.132167 -9.598575 -0.991750 -6.098857 0.607976 -0.000000 -0.000001 -0.000000 -28.120877 1.232670 -30.966903 45.389629 6.605616 -5.570180 -22.814977 -6.421235 29.868608 0.925892 4.755479 1.166113 0.000000 -0.000001 -0.000000 
